<svg width="114" height="81" viewBox="0 0 114 81" fill="none" xmlns="http://www.w3.org/2000/svg">
<path d="M33.8988 70.2334C33.1644 69.3959 32.4047 68.7361 31.5943 68.2285C30.8093 67.7463 29.8216 67.4925 28.6567 67.4925H27.1119V74.0401H28.7327C29.4164 74.0401 29.9989 73.8371 30.4294 73.4311C30.8852 73.025 31.0878 72.4921 31.0878 71.8322H31.4171V76.8572H31.0878C31.0878 76.0958 30.8599 75.4867 30.4294 75.0045C29.9989 74.5223 29.4164 74.2939 28.7327 74.2939H27.1119V79.1158C27.1119 79.4965 27.2132 79.801 27.4411 80.0041C27.6691 80.2071 27.973 80.3086 28.3781 80.3086H29.1125V80.5878H23.6172V80.3086H23.9211C24.3263 80.3086 24.6302 80.2071 24.8581 80.0041C25.086 79.801 25.1873 79.4965 25.1873 79.1158V68.6853C25.1873 68.3046 25.086 68.0001 24.8581 67.7971C24.6302 67.5941 24.3263 67.4925 23.9211 67.4925H23.6172V67.2134H32.8352L34.1268 70.2334H33.8988Z" fill="white"/>
<path d="M36.2793 80.3339H36.5832C36.9884 80.3339 37.2923 80.2324 37.5202 80.0293C37.7481 79.8263 37.8494 79.5218 37.8494 79.1411V68.7106C37.8494 68.3299 37.7481 68.0254 37.5202 67.8223C37.2923 67.6193 36.9884 67.5178 36.5832 67.5178H36.2793V67.2386H41.3188V67.5178H41.0149C40.6097 67.5178 40.3059 67.6193 40.0779 67.8223C39.85 68.0254 39.7487 68.3299 39.7487 68.7106V79.1411C39.7487 79.5218 39.85 79.8263 40.0779 80.0293C40.3059 80.2324 40.6097 80.3339 41.0149 80.3339H41.3188V80.613H36.2793V80.3339Z" fill="white"/>
<path d="M44.3574 80.3339H44.6613C45.0665 80.3339 45.3704 80.2324 45.5983 80.0293C45.8262 79.8263 45.9275 79.5218 45.9275 79.1411V68.7106C45.9275 68.3299 45.8262 68.0254 45.5983 67.8223C45.3704 67.6193 45.0665 67.5178 44.6613 67.5178H44.3574V67.2386H49.397V67.5178H49.1184C48.7132 67.5178 48.4093 67.6193 48.1814 67.8223C47.9535 68.0254 47.8522 68.3299 47.8522 68.7106V79.1411C47.8522 79.9278 48.308 80.3339 49.245 80.3339H50.7645C51.8787 80.3339 52.8664 79.9786 53.6767 79.268C54.5124 78.5574 55.1456 77.6692 55.6014 76.6286H55.9053L55.0189 80.6384H44.3827V80.3339H44.3574Z" fill="white"/>
<path d="M57.6533 80.3339H57.9571C58.3623 80.3339 58.6662 80.2324 58.8941 80.0293C59.1221 79.8263 59.2234 79.5218 59.2234 79.1411V68.7106C59.2234 68.3299 59.1221 68.0254 58.8941 67.8223C58.6662 67.6193 58.3623 67.5178 57.9571 67.5178H57.6533V67.2386H62.6928V67.5178H62.3889C61.9837 67.5178 61.6798 67.6193 61.4519 67.8223C61.224 68.0254 61.1227 68.3299 61.1227 68.7106V79.1411C61.1227 79.9278 61.5785 80.3339 62.4902 80.3339H64.0096C65.1239 80.3339 66.1115 79.9786 66.9219 79.268C67.7323 78.5574 68.3907 77.6692 68.8466 76.6286H69.1505L68.2641 80.6384H57.6279V80.3339H57.6533Z" fill="white"/>
<path d="M70.9229 80.3339H71.2267C71.6319 80.3339 71.9358 80.2324 72.1637 80.0293C72.3917 79.8263 72.493 79.5218 72.493 79.1411V68.7106C72.493 68.3299 72.3917 68.0254 72.1637 67.8223C71.9358 67.6193 71.6319 67.5178 71.2267 67.5178H70.9229V67.2386H75.9624V67.5178H75.6585C75.2533 67.5178 74.9494 67.6193 74.7215 67.8223C74.4936 68.0254 74.3923 68.3299 74.3923 68.7106V79.1411C74.3923 79.5218 74.4936 79.8263 74.7215 80.0293C74.9494 80.2324 75.2533 80.3339 75.6585 80.3339H75.9624V80.613H70.9229V80.3339Z" fill="white"/>
<path d="M79.0266 77.7199C78.3429 76.6794 78.0137 75.4105 78.0137 73.9132C78.0137 72.492 78.3682 71.2485 79.052 70.2079C79.7357 69.1674 80.6474 68.3807 81.787 67.8478C82.9266 67.3148 84.1675 67.0356 85.4843 67.0356C86.2187 67.0356 86.8012 67.1118 87.2823 67.2387C87.7635 67.3656 88.2447 67.5432 88.7512 67.797C89.207 68.0254 89.5362 68.1269 89.7388 68.1269C89.992 68.1269 90.1946 68.0254 90.3466 67.8478C90.4985 67.6701 90.5492 67.4671 90.5492 67.2133H90.8531V71.4007H90.5492C90.5492 70.8932 90.3466 70.3348 89.9161 69.7004C89.4856 69.0659 88.9031 68.5076 88.118 68.0254C87.333 67.5686 86.4466 67.3148 85.4337 67.3148C84.4207 67.3148 83.4837 67.5686 82.6733 68.1015C81.863 68.6345 81.2298 69.3958 80.7487 70.3856C80.2929 71.3753 80.0649 72.5681 80.0649 73.9386C80.0649 76.0703 80.5714 77.7199 81.5591 78.8366C82.5467 79.9532 83.8889 80.5369 85.6109 80.5369C86.6746 80.5369 87.5356 80.3339 88.1687 79.9532C88.8018 79.5726 89.1057 79.0142 89.1057 78.3036V76.3241C89.1057 75.9434 88.9791 75.6389 88.7512 75.4359C88.5232 75.2328 88.194 75.1313 87.7888 75.1313H87.1557V74.8522H92.5751V75.1313H92.2712C91.866 75.1313 91.5621 75.2328 91.3342 75.4359C91.1063 75.6389 91.005 75.9434 91.005 76.3241V79.7248C90.22 80.0801 89.3589 80.3339 88.4473 80.5369C87.5103 80.74 86.5733 80.8415 85.6109 80.8415C84.2181 80.8415 82.9266 80.5877 81.787 80.0801C80.6221 79.5218 79.7104 78.7604 79.0266 77.7199Z" fill="white"/>
<path d="M106.453 79.9532C106.68 80.1562 106.984 80.2831 107.364 80.3846V80.613H104.579C104.401 80.41 104.275 80.1816 104.148 79.9278C104.021 79.674 103.844 79.2934 103.616 78.7604L102.451 75.8927C102.173 75.2075 101.869 74.6999 101.489 74.4207C101.134 74.1162 100.603 73.9639 99.9189 73.9639H97.7917V79.1411C97.7917 79.5218 97.893 79.8263 98.1209 80.0293C98.3488 80.2324 98.6527 80.3339 99.0579 80.3339H99.3618V80.613H94.3223V80.3339H94.6262C95.0313 80.3339 95.3352 80.2324 95.5632 80.0293C95.7911 79.8263 95.8924 79.5218 95.8924 79.1411V68.7106C95.8924 68.3299 95.7911 68.0254 95.5632 67.8223C95.3352 67.6193 95.0313 67.5178 94.6262 67.5178H94.3223V67.2386H99.7923C100.881 67.2386 101.869 67.3655 102.705 67.6447C103.54 67.9239 104.199 68.2792 104.655 68.7867C105.11 69.2689 105.364 69.8526 105.364 70.4871C105.364 71.3753 105.009 72.0859 104.3 72.6696C103.591 73.2533 102.654 73.6086 101.489 73.7863C102.147 73.8624 102.73 74.0908 103.262 74.4715C103.794 74.8522 104.199 75.3597 104.477 76.0196L105.769 79.0142C105.997 79.4456 106.225 79.7756 106.453 79.9532ZM99.9949 73.6594C101.059 73.6594 101.894 73.3548 102.527 72.7458C103.16 72.1367 103.464 71.3753 103.464 70.4617C103.464 69.5227 103.135 68.7867 102.477 68.2538C101.818 67.7208 100.881 67.4924 99.691 67.4924C99.1086 67.4924 98.5008 67.5432 97.8677 67.6701V73.6594H99.9949Z" fill="white"/>
<path d="M108.96 80.3339H109.264C109.669 80.3339 109.973 80.2324 110.201 80.0293C110.429 79.8263 110.53 79.5218 110.53 79.1411V68.7106C110.53 68.3299 110.429 68.0254 110.201 67.8223C109.973 67.6193 109.669 67.5178 109.264 67.5178H108.96V67.2386H113.999V67.5178H113.696C113.29 67.5178 112.987 67.6193 112.759 67.8223C112.531 68.0254 112.429 68.3299 112.429 68.7106V79.1411C112.429 79.5218 112.531 79.8263 112.759 80.0293C112.987 80.2324 113.29 80.3339 113.696 80.3339H113.999V80.613H108.96V80.3339Z" fill="white"/>
<path d="M13.8424 80.5624C6.04248 74.167 7.1061 63.0513 14.7794 57.0366C17.4637 54.9556 20.452 53.4075 23.4403 51.8595C26.3779 50.5144 28.5811 47.6213 28.6317 44.3475C28.7583 38.6119 24.8584 33.7901 20.8319 30.1102C16.78 26.6841 13.2346 22.649 10.5502 18.0555C7.71389 13.5381 6.42235 8.03103 6.87818 2.70157L7.48597 2.7777C5.76392 9.9344 5.71327 17.4972 7.46064 24.6539C9.18269 31.8105 12.6521 38.5104 17.3878 44.1444L18.9072 45.9717L16.9066 44.6774C9.63853 39.957 3.83927 33.0033 0.547121 24.9584L1.02828 24.8315C1.33217 27.2424 1.76269 29.6534 2.49709 31.9628C3.63668 35.4143 5.40938 38.6627 7.48597 41.632C9.68918 44.5505 12.5002 46.9107 15.2099 49.3724L15.6404 49.753C14.4248 49.3977 13.1839 49.0678 11.9937 48.5603C9.94242 47.7228 8.22037 46.3016 6.57429 44.855C5.76392 44.119 4.97887 43.3323 4.29511 42.4695L4.72562 42.1903C6.32105 45.5402 8.57491 48.5603 11.3099 51.0727C16.6787 56.2245 24.3013 58.94 31.696 57.8487C35.3933 57.3158 38.964 55.9961 42.1295 54.042C39.04 56.1484 35.4693 57.5442 31.7466 58.1533C20.3254 60.1835 8.9801 52.6462 4.26979 42.3933L3.48474 40.7183C5.20679 42.8501 7.25805 44.8043 9.43594 46.4792C11.1073 47.8497 13.1333 48.611 15.1592 49.3216L15.0326 49.55C11.3859 46.327 7.53662 43.1039 5.18146 38.7642C3.9659 36.6324 2.80098 34.4499 2.04125 32.1151C1.07893 29.2727 0.648419 26.2273 0.268555 23.258C1.3575 25.6944 2.57306 28.1561 4.01655 30.4147C7.43532 35.8457 11.9684 40.5153 17.2865 44.0937L16.8053 44.6266C6.49832 32.445 2.97825 15.8222 7.41 0.493652C7.48597 2.92997 7.56194 5.51857 8.01778 7.87876C8.60023 11.2795 9.84112 14.4518 11.6391 17.421C14.0449 21.5069 17.1598 25.1614 20.6293 28.3591C25.3142 32.4958 29.7713 37.8252 29.5434 44.3982C29.4168 47.9512 26.9603 51.0981 23.7695 52.4939C20.7812 53.9405 17.7676 55.4632 15.1845 57.5188C7.73921 63.2543 6.62494 74.1416 13.8424 80.5624Z" fill="white"/>
<path d="M9.94201 58.5594C5.07975 61.9348 2.26876 67.7972 2.67395 73.7103C1.6863 67.7972 4.62392 61.3764 9.94201 58.5594Z" fill="white"/>
<path d="M7.79004 52.3669C12.9309 61.5285 24.9346 64.4977 32.0507 55.8183C33.6461 53.9657 35.1656 52.0624 36.609 50.0828C37.3181 49.0931 38.0525 48.0526 38.9135 47.1389C39.7492 46.2253 40.6356 45.3117 41.7499 44.6011C42.8641 43.8905 44.1303 43.5606 45.3712 43.3576C49.0432 42.7993 52.7659 43.053 56.4632 43.2561C54.26 43.3829 51.2718 43.4591 49.1192 43.6621C46.7894 43.8905 44.257 44.1189 42.2563 45.4132C40.3317 46.7583 38.7869 48.7124 37.3434 50.6158C35.8493 52.5953 34.2539 54.4733 32.5825 56.2752C30.9617 58.1532 28.8598 59.7012 26.4793 60.488C19.2113 63.2034 11.1582 59.0922 7.79004 52.3669Z" fill="white"/>
<path d="M33.0635 45.2104C34.1018 44.5251 35.0134 43.6623 35.6212 42.6218C36.0771 41.835 36.5076 40.8707 37.242 40.2362C38.964 38.409 41.6231 38.079 43.573 39.7286C44.0795 40.1347 44.5354 40.5915 44.8646 41.1498C42.6107 39.348 39.977 38.612 37.7485 40.7945C37.0394 41.4036 36.6595 42.165 36.1024 42.9517C35.3173 43.9922 34.2284 44.7789 33.0635 45.2104Z" fill="white"/>
</svg>
