<svg width="18" height="18" viewBox="0 0 18 18" fill="none" xmlns="http://www.w3.org/2000/svg">
<g clip-path="url(#clip0_6_144)">
<path d="M17.259 14.028L17.1757 13.7771C16.9785 13.1909 16.332 12.5795 15.7381 12.4184L13.5401 11.818C12.944 11.6558 12.0937 11.8739 11.6576 12.3099L10.8621 13.1055C7.97097 12.3242 5.7039 10.0571 4.92374 7.16657L5.7193 6.37102C6.15542 5.9349 6.37344 5.08573 6.21127 4.48965L5.6119 2.2905C5.44973 1.69551 4.8372 1.04904 4.2521 0.853983L4.00118 0.76962C3.41496 0.574562 2.5789 0.771829 2.14282 1.20791L0.952831 2.39899C0.740241 2.61045 0.604369 3.2153 0.604369 3.21751C0.562749 6.9956 2.04418 10.6356 4.71665 13.3081C7.38257 15.974 11.0089 17.4533 14.7761 17.4215C14.7958 17.4215 15.4181 17.2878 15.6307 17.0763L16.8207 15.8863C17.2568 15.4503 17.454 14.6143 17.259 14.028Z" fill="white"/>
</g>
<defs>
<clipPath id="clip0_6_144">
<rect width="16.7308" height="16.7308" fill="white" transform="translate(0.603516 0.692383)"/>
</clipPath>
</defs>
</svg>
