<svg width="20" height="11" viewBox="0 0 20 11" fill="none" xmlns="http://www.w3.org/2000/svg">
<path fill-rule="evenodd" clip-rule="evenodd" d="M9.95206 10.8596H11.0901C11.0901 10.8596 11.4339 10.8218 11.6094 10.6326C11.771 10.4589 11.7658 10.1327 11.7658 10.1327C11.7658 10.1327 11.7436 8.60564 12.4523 8.38076C13.151 8.15925 14.0481 9.85666 14.9991 10.5093C15.7182 11.0033 16.2646 10.895 16.2646 10.895L18.8072 10.8596C18.8072 10.8596 20.1373 10.7776 19.5066 9.73182C19.4549 9.64626 19.1393 8.9582 17.6161 7.54433C16.0219 6.06456 16.2354 6.30391 18.1558 3.74422C19.3254 2.18535 19.793 1.23364 19.647 0.826021C19.5077 0.437789 18.6475 0.540405 18.6475 0.540405L15.7846 0.558239C15.7846 0.558239 15.5724 0.52929 15.415 0.623375C15.2612 0.715651 15.1622 0.930704 15.1622 0.930704C15.1622 0.930704 14.7091 2.13701 14.1047 3.1629C12.8299 5.32764 12.3202 5.44189 12.1119 5.30748C11.6272 4.99421 11.7482 4.04896 11.7482 3.37744C11.7482 1.27965 12.0664 0.404964 11.1286 0.178538C10.8174 0.103322 10.5884 0.0536944 9.79258 0.0456817C8.77109 0.0350841 7.90648 0.048783 7.41693 0.288649C7.09125 0.448129 6.84001 0.803533 6.99303 0.823953C7.18223 0.849284 7.61079 0.939492 7.83799 1.24889C8.13136 1.64798 8.12102 2.54437 8.12102 2.54437C8.12102 2.54437 8.28955 5.01385 7.72736 5.32066C7.34145 5.53106 6.81209 5.10148 5.67557 3.13757C5.09323 2.13158 4.65356 1.01962 4.65356 1.01962C4.65356 1.01962 4.56878 0.811804 4.41757 0.70066C4.23405 0.565993 3.97764 0.523087 3.97764 0.523087L1.25718 0.540921C1.25718 0.540921 0.84879 0.552295 0.698874 0.729868C0.5655 0.887797 0.688276 1.21451 0.688276 1.21451C0.688276 1.21451 2.81812 6.19741 5.2297 8.70851C7.44097 11.0108 9.95206 10.8596 9.95206 10.8596Z" fill="white"/>
</svg>
