<svg width="28" height="28" viewBox="0 0 28 28" fill="none" xmlns="http://www.w3.org/2000/svg">
<g clip-path="url(#clip0_6_5867)">
<path d="M27.8516 20.4399C27.8177 20.3668 27.7861 20.3062 27.7567 20.2576C27.2709 19.3827 26.3425 18.3088 24.9722 17.0355L24.9433 17.0064L24.9287 16.9921L24.9141 16.9774H24.8994C24.2775 16.3846 23.8836 15.9859 23.7187 15.7818C23.4169 15.393 23.3493 14.9995 23.5142 14.6008C23.6308 14.2995 24.0685 13.6633 24.8263 12.6912C25.225 12.1761 25.5407 11.7632 25.7738 11.4521C27.4553 9.21665 28.1843 7.78815 27.9607 7.16607L27.8738 7.02069C27.8155 6.93317 27.6648 6.85311 27.4221 6.78009C27.1789 6.70723 26.868 6.69518 26.4888 6.74374L22.2903 6.77274C22.2223 6.74864 22.1252 6.75088 21.9987 6.78009C21.8723 6.8093 21.8091 6.82395 21.8091 6.82395L21.736 6.86046L21.678 6.90432C21.6294 6.93333 21.5759 6.98434 21.5176 7.05725C21.4595 7.12991 21.411 7.21519 21.3722 7.31236C20.9151 8.48835 20.3954 9.58174 19.8121 10.5924C19.4525 11.1951 19.1222 11.7174 18.8206 12.1597C18.5194 12.6018 18.2666 12.9275 18.0627 13.1363C17.8585 13.3453 17.6741 13.5127 17.5086 13.6392C17.3433 13.7657 17.2171 13.8192 17.1298 13.7996C17.0422 13.7801 16.9597 13.7607 16.8817 13.7413C16.7457 13.6537 16.6363 13.5347 16.5538 13.3841C16.471 13.2335 16.4153 13.0439 16.3861 12.8155C16.3571 12.5869 16.3399 12.3903 16.335 12.225C16.3305 12.06 16.3326 11.8265 16.3424 11.5252C16.3526 11.2238 16.3571 11.0198 16.3571 10.9129C16.3571 10.5435 16.3643 10.1426 16.3788 9.71016C16.3935 9.27766 16.4054 8.93499 16.4153 8.68254C16.4252 8.42984 16.4298 8.16248 16.4298 7.88062C16.4298 7.59876 16.4127 7.37771 16.3788 7.21728C16.3453 7.05705 16.2938 6.90152 16.2261 6.75073C16.1579 6.6001 16.0581 6.48358 15.9272 6.40086C15.796 6.31824 15.6329 6.25268 15.4389 6.20396C14.9237 6.08739 14.2677 6.02433 13.4706 6.01453C11.663 5.99512 10.5015 6.11185 9.98636 6.36455C9.78227 6.47132 9.59758 6.6172 9.43244 6.80174C9.25746 7.01564 9.23305 7.13236 9.35937 7.15156C9.9426 7.23893 10.3555 7.44792 10.5985 7.77834L10.6861 7.95343C10.7542 8.07976 10.8222 8.30341 10.8902 8.62408C10.9582 8.94474 11.0021 9.29947 11.0214 9.68805C11.0699 10.3976 11.0699 11.0051 11.0214 11.5104C10.9727 12.0159 10.9268 12.4094 10.8829 12.6913C10.839 12.9731 10.7735 13.2015 10.6861 13.3764C10.5985 13.5514 10.5402 13.6583 10.511 13.6971C10.4819 13.7359 10.4576 13.7604 10.4383 13.77C10.3119 13.8184 10.1805 13.843 10.0446 13.843C9.90839 13.843 9.74325 13.7749 9.54891 13.6388C9.35462 13.5026 9.15298 13.3157 8.94399 13.0775C8.73499 12.8393 8.49929 12.5064 8.23679 12.0788C7.97448 11.6513 7.70233 11.1459 7.42047 10.5628L7.18727 10.1399C7.04149 9.86783 6.84235 9.4717 6.58964 8.95184C6.33679 8.43178 6.11329 7.92872 5.919 7.44277C5.84134 7.23867 5.72466 7.08329 5.56918 6.97637L5.49621 6.93251C5.4477 6.8937 5.36983 6.8525 5.26301 6.80858C5.15604 6.76472 5.04442 6.73327 4.92769 6.71391L0.9332 6.74292C0.525015 6.74292 0.248057 6.83539 0.102225 7.02008L0.0438619 7.10745C0.0147057 7.15611 0 7.23382 0 7.3408C0 7.44772 0.0291561 7.57895 0.0875195 7.73433C0.670642 9.10482 1.30478 10.4265 1.98992 11.6997C2.67506 12.9729 3.27044 13.9985 3.77569 14.7755C4.28105 15.5531 4.79616 16.287 5.32102 16.9769C5.84588 17.667 6.1933 18.1092 6.36329 18.3035C6.53348 18.4982 6.66715 18.6437 6.76433 18.7408L7.12885 19.0907C7.3621 19.324 7.70462 19.6034 8.15657 19.9289C8.60862 20.2546 9.10907 20.5753 9.65819 20.8914C10.2074 21.207 10.8463 21.4646 11.5753 21.6638C12.3042 21.8632 13.0137 21.9432 13.7038 21.9046H15.3803C15.7204 21.8752 15.978 21.7683 16.1531 21.5837L16.2111 21.5107C16.2501 21.4527 16.2866 21.3626 16.3203 21.2413C16.3544 21.1198 16.3713 20.986 16.3713 20.8404C16.3614 20.4226 16.3932 20.046 16.4659 19.7107C16.5386 19.3755 16.6214 19.1228 16.714 18.9527C16.8066 18.7826 16.9111 18.6391 17.0273 18.5228C17.1439 18.4062 17.2269 18.3356 17.2756 18.3113C17.324 18.2869 17.3627 18.2703 17.3918 18.2603C17.6251 18.1826 17.8996 18.2579 18.2157 18.4865C18.5317 18.7149 18.828 18.9969 19.1051 19.332C19.3821 19.6675 19.715 20.0439 20.1036 20.4617C20.4926 20.8797 20.8326 21.1904 21.1241 21.3948L21.4156 21.5698C21.6102 21.6865 21.8629 21.7934 22.174 21.8906C22.4845 21.9877 22.7565 22.012 22.9901 21.9634L26.7221 21.9052C27.0912 21.9052 27.3784 21.8441 27.5822 21.7228C27.7863 21.6014 27.9076 21.4675 27.9467 21.322C27.9857 21.1762 27.9878 21.0109 27.9541 20.826C27.9195 20.6417 27.8855 20.5127 27.8516 20.4399Z" fill="#3E7CB5"/>
</g>
<defs>
<clipPath id="clip0_6_5867">
<rect width="28" height="28" fill="white"/>
</clipPath>
</defs>
</svg>
