<svg width="25" height="25" viewBox="0 0 25 25" fill="none" xmlns="http://www.w3.org/2000/svg">
<g clip-path="url(#clip0_6_5870)">
<path d="M24.4335 11.8066C24.4042 14.9023 23.6083 17.3242 21.953 19.4287C20.1756 21.6894 17.8612 23.125 15.0292 23.706C12.8417 24.1504 10.7128 23.9551 8.62291 23.1982C8.15904 23.0273 7.70494 22.8271 7.27037 22.5879C7.13854 22.5146 7.02623 22.5049 6.87975 22.5537C4.90221 23.1933 2.91979 23.8281 0.937365 24.458C0.849474 24.4873 0.732287 24.5703 0.663928 24.5068C0.585803 24.4287 0.683459 24.3115 0.712756 24.2187C1.10826 23.042 1.50377 21.8603 1.90416 20.6836C2.1483 19.9658 2.38268 19.2529 2.63658 18.54C2.70494 18.3545 2.68053 18.2129 2.57799 18.042C2.07506 17.1826 1.70397 16.2646 1.44029 15.3027C0.947131 13.4961 0.89342 11.6699 1.27916 9.84373C1.69908 7.85154 2.57799 6.0742 3.93053 4.541C5.56627 2.68553 7.58287 1.45994 9.98033 0.86912C11.5087 0.493143 13.0516 0.43455 14.6044 0.688456C16.6356 1.02049 18.4667 1.82615 20.0633 3.12498C21.7235 4.47752 22.9344 6.15721 23.6962 8.17381C24.1161 9.26267 24.4481 11.0449 24.4335 11.8066ZM3.64244 21.5576C4.85338 21.167 6.01061 20.7959 7.15807 20.4199C7.30944 20.3711 7.43151 20.3808 7.56334 20.4687C8.00279 20.7617 8.47643 20.9961 8.96471 21.2012C10.5516 21.875 12.202 22.1191 13.9061 21.8994C15.996 21.6308 17.8319 20.791 19.3749 19.331C21.3182 17.4902 22.3583 15.2344 22.451 12.5683C22.5389 9.95603 21.6991 7.66111 19.9462 5.71287C18.2811 3.86228 16.1913 2.8076 13.7255 2.54392C11.5819 2.31443 9.57506 2.7783 7.71959 3.89158C6.13268 4.84861 4.91686 6.15232 4.07213 7.79783C3.13951 9.60935 2.82213 11.5332 3.09069 13.5498C3.29088 15.0732 3.83776 16.4746 4.71666 17.7344C4.81432 17.876 4.84362 17.9931 4.78502 18.1592C4.60436 18.6572 4.44322 19.1601 4.27233 19.6582C4.06725 20.2734 3.86705 20.8887 3.64244 21.5576Z" fill="#51C85D"/>
<path d="M6.88442 9.50681C6.90883 8.3447 7.31899 7.48044 8.09536 6.79196C8.34438 6.56735 8.652 6.4697 8.99868 6.51852C9.14516 6.53806 9.29165 6.5527 9.43813 6.54294C9.71157 6.52829 9.89711 6.66013 9.98989 6.89938C10.317 7.74899 10.6344 8.5986 10.9518 9.4531C11.0592 9.74606 10.8737 9.97556 10.7174 10.1855C10.5368 10.4345 10.317 10.6543 10.1022 10.874C9.88247 11.0986 9.85317 11.2256 10.0045 11.499C10.8883 13.1054 12.1286 14.3408 13.8131 15.1025C13.8717 15.1269 13.9303 15.1611 13.9889 15.1904C14.2135 15.2929 14.4137 15.2685 14.5846 15.0732C14.8971 14.707 15.2389 14.3701 15.527 13.9843C15.7174 13.7304 15.8493 13.6865 16.1373 13.8134C16.9967 14.1845 17.8024 14.6533 18.6227 15.1074C18.7741 15.1904 18.8278 15.3174 18.8229 15.4931C18.7789 16.9336 17.9538 17.6855 16.5036 18.0175C15.8004 18.1787 15.151 18.0029 14.5065 17.7685C13.154 17.2802 11.8502 16.7041 10.7565 15.7373C9.88735 14.9658 9.12075 14.1064 8.47133 13.1445C7.97329 12.4023 7.45571 11.6748 7.16762 10.8105C7.00161 10.3515 6.87954 9.88278 6.88442 9.50681Z" fill="#51C85D"/>
</g>
<defs>
<clipPath id="clip0_6_5870">
<rect width="25" height="25" fill="white"/>
</clipPath>
</defs>
</svg>
